{"title":"Rob Roy (1995) DVDRip XviD AC3 peaSoup","uid":9438896,"size":1572661105,"categoryP":"video","categoryS":"movies","magnet":"?xt=urn:btih:427042c2c6372130d5177b7c675bf7cdf380d5e1&amp;dn=Rob+Roy+%281995%29+DVDRip+XviD+AC3+peaSoup&amp;tr=udp%3A%2F%2Ftracker.openbittorrent.com%3A80&amp;tr=udp%3A%2F%2Fopen.demonii.com%3A1337&amp;tr=udp%3A%2F%2Ftracker.coppersurfer.tk%3A6969&amp;tr=udp%3A%2F%2Fexodus.desync.com%3A6969","seeders":11,"leechers":0,"uploader":"peaSoup","files":-1,"time":1388959149,"description":"Storyline\n\nIn the highlands of Scotland in the 1700s, Rob Roy tries to lead his small town to a better future, by borrowing money from the local nobility to buy cattle to herd to market. When the money is stolen, Rob is forced into a Robin Hood lifestyle to defend his family and honour.                                                       &lt;a href=&quot; http://i772.photobucket.com/albums/yy5/moonglum11/RobRoy1995DVDRipXviDAC3peaSoupavi_snapshot_000831_20140105_201732_zps7416225b.jpg&quot; rel=&quot;nofollow&quot; target=&quot;_NEW&quot;&gt; http://i772.photobucket.com/albums/yy5/moonglum11/RobRoy1995DVDRipXviDAC3peaSoupavi_snapshot_000831_20140105_201732_zps7416225b.jpg&lt;/a&gt;  &lt;a href=&quot; http://i772.photobucket.com/albums/yy5/moonglum11/RobRoy1995DVDRipXviDAC3peaSoupavi_snapshot_004258_20140105_201912_zpsc1541de4.jpg&quot; rel=&quot;nofollow&quot; target=&quot;_NEW&quot;&gt; http://i772.photobucket.com/albums/yy5/moonglum11/RobRoy1995DVDRipXviDAC3peaSoupavi_snapshot_004258_20140105_201912_zpsc1541de4.jpg&lt;/a&gt;  &lt;a href=&quot; http://i772.photobucket.com/albums/yy5/moonglum11/RobRoy1995DVDRipXviDAC3peaSoupavi_snapshot_011226_20140105_201930_zps2f00cc7e.jpg&quot; rel=&quot;nofollow&quot; target=&quot;_NEW&quot;&gt; http://i772.photobucket.com/albums/yy5/moonglum11/RobRoy1995DVDRipXviDAC3peaSoupavi_snapshot_011226_20140105_201930_zps2f00cc7e.jpg&lt;/a&gt;  &lt;a href=&quot; http://i772.photobucket.com/albums/yy5/moonglum11/RobRoy1995DVDRipXviDAC3peaSoupavi_snapshot_014522_20140105_202119_zps341316df.jpg&quot; rel=&quot;nofollow&quot; target=&quot;_NEW&quot;&gt; http://i772.photobucket.com/albums/yy5/moonglum11/RobRoy1995DVDRipXviDAC3peaSoupavi_snapshot_014522_20140105_202119_zps341316df.jpg&lt;/a&gt;  &lt;a href=&quot; http://i772.photobucket.com/albums/yy5/moonglum11/RobRoy1995DVDRipXviDAC3peaSoupavi_thumbs_20140105_202144_zpsaa1854ab.jpg&quot; rel=&quot;nofollow&quot; target=&quot;_NEW&quot;&gt; http://i772.photobucket.com/albums/yy5/moonglum11/RobRoy1995DVDRipXviDAC3peaSoupavi_thumbs_20140105_202144_zpsaa1854ab.jpg&lt;/a&gt;            Format                                   : AVI\nFormat/Info                              : Audio Video Interleave\nFormat profile                           : OpenDML\nFile size                                : 1.43 GiB\nDuration                                 : 2h 13mn\nOverall bit rate                         : 1 538 Kbps\nMovie name                               : Rob Roy (1995) DVDRip XviD AC3 peaSoup\nWriting application                      : Lavf53.21.0\nOriginal source form/Name                : 56260D1D2D3D4\n\nVideo\nID                                       : 0\nFormat                                   : MPEG-4 Visual\nFormat profile                           : Advanced Simple@L5\nFormat settings, BVOP                    : 2\nFormat settings, QPel                    : No\nFormat settings, GMC                     : No warppoints\nFormat settings, Matrix                  : Default (H.263)\nMuxing mode                              : Packed bitstream\nCodec ID                                 : XVID\nCodec ID/Hint                            : XviD\nDuration                                 : 2h 13mn\nBit rate                                 : 1 078 Kbps\nWidth                                    : 720 pixels\nHeight                                   : 300 pixels\nDisplay aspect ratio                     : 2.40:1\nFrame rate                               : 25.000 fps\nColor space                              : YUV\nChroma subsampling                       : 4:2:0\nBit depth                                : 8 bits\nScan type                                : Progressive\nCompression mode                         : Lossy\nBits/(Pixel*Frame)                       : 0.200\nStream size                              : 1.00 GiB (70%)\nWriting library                          : XviD 1.2.1 (UTC 2008-12-04)\n\nAudio\nID                                       : 1\nFormat                                   : AC-3\nFormat/Info                              : Audio Coding 3\nMode extension                           : CM (complete main)\nFormat settings, Endianness              : Big\nCodec ID                                 : 2000\nDuration                                 : 2h 13mn\nBit rate mode                            : Constant\nBit rate                                 : 448 Kbps\nChannel count                            : 6 channels\nChannel positions                        : Front: L C R, Side: L R, LFE\nSampling rate                            : 48.0 KHz\nBit depth                                : 16 bits\nCompression mode                         : Lossy\nStream size                              : 427 MiB (29%)\nAlignment                                : Aligned on interleaves\nInterleave, duration                     : 32 ms (0.80 video frame)\n\n","torrent":{"xt":"urn:btih:427042c2c6372130d5177b7c675bf7cdf380d5e1","amp;dn":"Rob+Roy+%281995%29+DVDRip+XviD+AC3+peaSoup","amp;tr":["udp%3A%2F%2Ftracker.openbittorrent.com%3A80","udp%3A%2F%2Fopen.demonii.com%3A1337","udp%3A%2F%2Ftracker.coppersurfer.tk%3A6969","udp%3A%2F%2Fexodus.desync.com%3A6969"],"infoHash":"427042c2c6372130d5177b7c675bf7cdf380d5e1","infoHashBuffer":{"type":"Buffer","data":[66,112,66,194,198,55,33,48,213,23,123,124,103,91,247,205,243,128,213,225]},"announce":[],"urlList":[]}}